<?xml version="1.0" standalone="no"?>
<!DOCTYPE svg PUBLIC "-//W3C//DTD SVG 20010904//EN"
 "http://www.w3.org/TR/2001/REC-SVG-20010904/DTD/svg10.dtd">
<svg version="1.0" xmlns="http://www.w3.org/2000/svg"
 width="300.000000pt" height="300.000000pt" viewBox="0 0 300.000000 300.000000"
 preserveAspectRatio="xMidYMid meet">
<metadata>
Created by potrace 1.10, written by Peter Selinger 2001-2011
</metadata>
<g transform="translate(0.000000,300.000000) scale(0.100000,-0.100000)"
fill="#000000" stroke="none">
<path d="M665 1899 c-60 -28 -119 -59 -130 -70 -17 -17 -18 -21 -5 -34 16 -15
252 -125 270 -125 6 0 68 27 138 60 171 80 171 82 8 160 -69 33 -136 60 -148
60 -13 -1 -72 -24 -133 -51z m214 -45 c45 -20 81 -40 81 -43 0 -3 -37 -22 -83
-42 l-82 -37 -50 25 c-27 14 -65 31 -85 38 l-35 13 80 40 c44 21 83 40 87 41
3 0 43 -15 87 -35z m-259 -44 c0 -28 -2 -30 -20 -20 -25 13 -26 37 -2 43 9 3
18 5 20 6 1 0 2 -13 2 -29z m384 15 c21 -16 21 -17 -9 -33 -18 -9 -20 -7 -20
19 0 33 2 34 29 14z"/>
<path d="M2348 1770 c2 -59 0 -90 -7 -90 -6 0 -11 4 -11 8 0 5 -17 14 -39 20
-63 19 -126 -10 -158 -72 -20 -39 -19 -115 1 -155 33 -63 121 -90 186 -56 16
8 30 11 32 6 2 -5 13 -11 26 -13 l23 -3 2 223 2 222 -30 0 -30 0 3 -90z m-31
-131 c7 -6 18 -28 24 -48 20 -66 -24 -131 -87 -131 -9 0 -29 13 -45 29 -41 42
-41 101 1 143 26 25 36 29 62 24 17 -3 37 -11 45 -17z"/>
<path d="M1555 1837 c-10 -8 -16 -23 -13 -38 2 -19 9 -24 33 -24 25 0 31 4 33
27 4 34 -26 54 -53 35z"/>
<path d="M2010 1832 c-20 -16 -21 -21 -11 -41 18 -33 65 -26 69 11 5 38 -28
54 -58 30z"/>
<path d="M531 1711 c-14 -25 5 -41 89 -79 36 -16 91 -41 122 -56 l57 -27 136
65 c121 58 136 68 133 88 -2 13 -10 24 -19 26 -8 1 -68 -23 -133 -54 l-118
-56 -120 56 c-66 31 -124 56 -129 56 -4 0 -13 -8 -18 -19z"/>
<path d="M1199 1663 c11 -27 37 -91 58 -143 l39 -95 45 -3 44 -3 19 48 c10 26
25 62 32 78 29 69 64 155 64 160 0 4 -14 5 -32 3 -31 -3 -34 -7 -78 -115 -25
-62 -48 -113 -52 -113 -5 0 -7 3 -6 8 2 4 -17 55 -41 115 -43 106 -43 107 -77
107 l-34 0 19 -47z"/>
<path d="M1547 1704 c-4 -4 -7 -70 -7 -146 l0 -138 35 0 36 0 -3 143 -3 142
-25 3 c-14 2 -29 0 -33 -4z"/>
<path d="M1654 1673 c15 -40 67 -164 92 -220 13 -30 19 -33 57 -33 l42 0 52
128 c29 70 55 135 59 145 5 14 0 17 -27 17 -34 0 -34 -1 -78 -110 -24 -61 -47
-110 -50 -110 -4 0 -17 28 -31 63 -13 34 -27 67 -31 72 -3 6 -12 27 -18 48
-11 33 -16 37 -46 37 l-34 0 13 -37z"/>
<path d="M2005 1565 l0 -145 28 0 27 0 0 145 0 145 -27 0 -28 0 0 -145z"/>
<path d="M532 1585 c3 -22 21 -34 131 -85 71 -33 134 -60 140 -59 7 0 68 28
137 62 98 49 125 66 125 82 0 35 -36 28 -155 -28 l-114 -54 -110 53 c-127 62
-159 67 -154 29z"/>
<path d="M530 1485 c-6 -8 -8 -19 -4 -26 10 -16 247 -129 272 -129 10 0 76 27
146 60 99 48 126 65 126 81 0 44 -28 38 -184 -37 l-88 -43 -114 54 c-124 59
-135 62 -154 40z"/>
</g>
</svg>
